<svg width="19" height="23" viewBox="0 0 19 23" fill="none" xmlns="http://www.w3.org/2000/svg">
<path d="M18.104 7.768C18.104 9.06933 17.8053 10.264 17.208 11.352C16.6107 12.4187 15.6933 13.2827 14.456 13.944C13.2187 14.6053 11.6827 14.936 9.848 14.936H6.456V23H0.984V0.535999H9.848C11.64 0.535999 13.1547 0.845332 14.392 1.464C15.6293 2.08267 16.5573 2.936 17.176 4.024C17.7947 5.112 18.104 6.36 18.104 7.768ZM9.432 10.584C10.4773 10.584 11.256 10.3387 11.768 9.848C12.28 9.35733 12.536 8.664 12.536 7.768C12.536 6.872 12.28 6.17867 11.768 5.688C11.256 5.19733 10.4773 4.952 9.432 4.952H6.456V10.584H9.432Z" fill="url(#paint0_linear_43_69)"/>
<defs>
<linearGradient id="paint0_linear_43_69" x1="12" y1="6" x2="5.5" y2="28" gradientUnits="userSpaceOnUse">
<stop stop-color="#864CFA"/>
<stop offset="1" stop-color="#F4B044"/>
</linearGradient>
</defs>
</svg>
